<?xml version="1.0" encoding="utf-8" standalone="no"?>
<!DOCTYPE svg PUBLIC "-//W3C//DTD SVG 1.1//EN"
  "http://www.w3.org/Graphics/SVG/1.1/DTD/svg11.dtd">
<!-- Created with matplotlib (https://matplotlib.org/) -->
<svg height="432pt" version="1.1" viewBox="0 0 432 432" width="432pt" xmlns="http://www.w3.org/2000/svg" xmlns:xlink="http://www.w3.org/1999/xlink">
 <defs>
  <style type="text/css">
*{stroke-linecap:butt;stroke-linejoin:round;}
  </style>
 </defs>
 <g id="figure_1">
  <g id="patch_1">
   <path d="M 0 432 
L 432 432 
L 432 0 
L 0 0 
z
" style="fill:#ffffff;"/>
  </g>
  <g id="axes_1">
   <g id="patch_2">
    <path d="M 0 432 
L 432 432 
L 432 0 
L 0 0 
z
" style="fill:#ffffff;"/>
   </g>
   <g id="PatchCollection_1">
    <path clip-path="url(#p4d2d60db33)" d="M 0 432 
L 432 432 
L 432 0 
L 0 0 
z
" style="fill:#ffa500;stroke:#ffa500;"/>
   </g>
   <g id="PatchCollection_2">
    <path clip-path="url(#p4d2d60db33)" d="M 151.848 391.824 
C 164.450451 391.824 176.538435 386.816993 185.449714 377.905714 
C 194.360993 368.994435 199.368 356.906451 199.368 344.304 
C 199.368 331.701549 194.360993 319.613565 185.449714 310.702286 
C 176.538435 301.791007 164.450451 296.784 151.848 296.784 
C 139.245549 296.784 127.157565 301.791007 118.246286 310.702286 
C 109.335007 319.613565 104.328 331.701549 104.328 344.304 
C 104.328 356.906451 109.335007 368.994435 118.246286 377.905714 
C 127.157565 386.816993 139.245549 391.824 151.848 391.824 
z
" style="fill:#2f4f4f;stroke:#2f4f4f;"/>
    <path clip-path="url(#p4d2d60db33)" d="M 280.152 391.824 
C 292.754451 391.824 304.842435 386.816993 313.753714 377.905714 
C 322.664993 368.994435 327.672 356.906451 327.672 344.304 
C 327.672 331.701549 322.664993 319.613565 313.753714 310.702286 
C 304.842435 301.791007 292.754451 296.784 280.152 296.784 
C 267.549549 296.784 255.461565 301.791007 246.550286 310.702286 
C 237.639007 319.613565 232.632 331.701549 232.632 344.304 
C 232.632 356.906451 237.639007 368.994435 246.550286 377.905714 
C 255.461565 386.816993 267.549549 391.824 280.152 391.824 
z
" style="fill:#2f4f4f;stroke:#2f4f4f;"/>
    <path clip-path="url(#p4d2d60db33)" d="M 87.696 263.52 
C 100.298451 263.52 112.386435 258.512993 121.297714 249.601714 
C 130.208993 240.690435 135.216 228.602451 135.216 216 
C 135.216 203.397549 130.208993 191.309565 121.297714 182.398286 
C 112.386435 173.487007 100.298451 168.48 87.696 168.48 
C 75.093549 168.48 63.005565 173.487007 54.094286 182.398286 
C 45.183007 191.309565 40.176 203.397549 40.176 216 
C 40.176 228.602451 45.183007 240.690435 54.094286 249.601714 
C 63.005565 258.512993 75.093549 263.52 87.696 263.52 
z
" style="fill:#2f4f4f;stroke:#2f4f4f;"/>
    <path clip-path="url(#p4d2d60db33)" d="M 216 263.52 
C 228.602451 263.52 240.690435 258.512993 249.601714 249.601714 
C 258.512993 240.690435 263.52 228.602451 263.52 216 
C 263.52 203.397549 258.512993 191.309565 249.601714 182.398286 
C 240.690435 173.487007 228.602451 168.48 216 168.48 
C 203.397549 168.48 191.309565 173.487007 182.398286 182.398286 
C 173.487007 191.309565 168.48 203.397549 168.48 216 
C 168.48 228.602451 173.487007 240.690435 182.398286 249.601714 
C 191.309565 258.512993 203.397549 263.52 216 263.52 
z
" style="fill:#2f4f4f;stroke:#2f4f4f;"/>
    <path clip-path="url(#p4d2d60db33)" d="M 344.304 263.52 
C 356.906451 263.52 368.994435 258.512993 377.905714 249.601714 
C 386.816993 240.690435 391.824 228.602451 391.824 216 
C 391.824 203.397549 386.816993 191.309565 377.905714 182.398286 
C 368.994435 173.487007 356.906451 168.48 344.304 168.48 
C 331.701549 168.48 319.613565 173.487007 310.702286 182.398286 
C 301.791007 191.309565 296.784 203.397549 296.784 216 
C 296.784 228.602451 301.791007 240.690435 310.702286 249.601714 
C 319.613565 258.512993 331.701549 263.52 344.304 263.52 
z
" style="fill:#2f4f4f;stroke:#2f4f4f;"/>
    <path clip-path="url(#p4d2d60db33)" d="M 151.848 135.216 
C 164.450451 135.216 176.538435 130.208993 185.449714 121.297714 
C 194.360993 112.386435 199.368 100.298451 199.368 87.696 
C 199.368 75.093549 194.360993 63.005565 185.449714 54.094286 
C 176.538435 45.183007 164.450451 40.176 151.848 40.176 
C 139.245549 40.176 127.157565 45.183007 118.246286 54.094286 
C 109.335007 63.005565 104.328 75.093549 104.328 87.696 
C 104.328 100.298451 109.335007 112.386435 118.246286 121.297714 
C 127.157565 130.208993 139.245549 135.216 151.848 135.216 
z
" style="fill:#2f4f4f;stroke:#2f4f4f;"/>
    <path clip-path="url(#p4d2d60db33)" d="M 280.152 135.216 
C 292.754451 135.216 304.842435 130.208993 313.753714 121.297714 
C 322.664993 112.386435 327.672 100.298451 327.672 87.696 
C 327.672 75.093549 322.664993 63.005565 313.753714 54.094286 
C 304.842435 45.183007 292.754451 40.176 280.152 40.176 
C 267.549549 40.176 255.461565 45.183007 246.550286 54.094286 
C 237.639007 63.005565 232.632 75.093549 232.632 87.696 
C 232.632 100.298451 237.639007 112.386435 246.550286 121.297714 
C 255.461565 130.208993 267.549549 135.216 280.152 135.216 
z
" style="fill:#2f4f4f;stroke:#2f4f4f;"/>
   </g>
   <g id="PatchCollection_3">
    <defs>
     <path d="M 388.8 -28.08 
C 392.809871 -28.08 396.656048 -29.673139 399.491455 -32.508545 
C 402.326861 -35.343952 403.92 -39.190129 403.92 -43.2 
C 403.92 -47.209871 402.326861 -51.056048 399.491455 -53.891455 
C 396.656048 -56.726861 392.809871 -58.32 388.8 -58.32 
C 384.790129 -58.32 380.943952 -56.726861 378.108545 -53.891455 
C 375.273139 -51.056048 373.68 -47.209871 373.68 -43.2 
C 373.68 -39.190129 375.273139 -35.343952 378.108545 -32.508545 
C 380.943952 -29.673139 384.790129 -28.08 388.8 -28.08 
z
" id="m8c61759e70" style="stroke:#ffd700;"/>
    </defs>
    <g clip-path="url(#p4d2d60db33)">
     <use style="fill:#ffd700;stroke:#ffd700;" x="0" xlink:href="#m8c61759e70" y="432"/>
    </g>
   </g>
   <g id="matplotlib.axis_1">
    <g id="xtick_1">
     <g id="line2d_1">
      <defs>
       <path d="M 0 0 
L 0 3.5 
" id="mde639b9f7f" style="stroke:#000000;stroke-width:0.8;"/>
      </defs>
      <g>
       <use style="stroke:#000000;stroke-width:0.8;" x="43.2" xlink:href="#mde639b9f7f" y="432"/>
      </g>
     </g>
     <g id="text_1">
      <!-- −0.4 -->
      <defs>
       <path d="M 10.59375 35.5 
L 73.1875 35.5 
L 73.1875 27.203125 
L 10.59375 27.203125 
z
" id="DejaVuSans-8722"/>
       <path d="M 31.78125 66.40625 
Q 24.171875 66.40625 20.328125 58.90625 
Q 16.5 51.421875 16.5 36.375 
Q 16.5 21.390625 20.328125 13.890625 
Q 24.171875 6.390625 31.78125 6.390625 
Q 39.453125 6.390625 43.28125 13.890625 
Q 47.125 21.390625 47.125 36.375 
Q 47.125 51.421875 43.28125 58.90625 
Q 39.453125 66.40625 31.78125 66.40625 
z
M 31.78125 74.21875 
Q 44.046875 74.21875 50.515625 64.515625 
Q 56.984375 54.828125 56.984375 36.375 
Q 56.984375 17.96875 50.515625 8.265625 
Q 44.046875 -1.421875 31.78125 -1.421875 
Q 19.53125 -1.421875 13.0625 8.265625 
Q 6.59375 17.96875 6.59375 36.375 
Q 6.59375 54.828125 13.0625 64.515625 
Q 19.53125 74.21875 31.78125 74.21875 
z
" id="DejaVuSans-48"/>
       <path d="M 10.6875 12.40625 
L 21 12.40625 
L 21 0 
L 10.6875 0 
z
" id="DejaVuSans-46"/>
       <path d="M 37.796875 64.3125 
L 12.890625 25.390625 
L 37.796875 25.390625 
z
M 35.203125 72.90625 
L 47.609375 72.90625 
L 47.609375 25.390625 
L 58.015625 25.390625 
L 58.015625 17.1875 
L 47.609375 17.1875 
L 47.609375 0 
L 37.796875 0 
L 37.796875 17.1875 
L 4.890625 17.1875 
L 4.890625 26.703125 
z
" id="DejaVuSans-52"/>
      </defs>
      <g transform="translate(31.058594 446.598437)scale(0.1 -0.1)">
       <use xlink:href="#DejaVuSans-8722"/>
       <use x="83.789062" xlink:href="#DejaVuSans-48"/>
       <use x="147.412109" xlink:href="#DejaVuSans-46"/>
       <use x="179.199219" xlink:href="#DejaVuSans-52"/>
      </g>
     </g>
    </g>
    <g id="xtick_2">
     <g id="line2d_2">
      <g>
       <use style="stroke:#000000;stroke-width:0.8;" x="129.6" xlink:href="#mde639b9f7f" y="432"/>
      </g>
     </g>
     <g id="text_2">
      <!-- −0.2 -->
      <defs>
       <path d="M 19.1875 8.296875 
L 53.609375 8.296875 
L 53.609375 0 
L 7.328125 0 
L 7.328125 8.296875 
Q 12.9375 14.109375 22.625 23.890625 
Q 32.328125 33.6875 34.8125 36.53125 
Q 39.546875 41.84375 41.421875 45.53125 
Q 43.3125 49.21875 43.3125 52.78125 
Q 43.3125 58.59375 39.234375 62.25 
Q 35.15625 65.921875 28.609375 65.921875 
Q 23.96875 65.921875 18.8125 64.3125 
Q 13.671875 62.703125 7.8125 59.421875 
L 7.8125 69.390625 
Q 13.765625 71.78125 18.9375 73 
Q 24.125 74.21875 28.421875 74.21875 
Q 39.75 74.21875 46.484375 68.546875 
Q 53.21875 62.890625 53.21875 53.421875 
Q 53.21875 48.921875 51.53125 44.890625 
Q 49.859375 40.875 45.40625 35.40625 
Q 44.1875 33.984375 37.640625 27.21875 
Q 31.109375 20.453125 19.1875 8.296875 
z
" id="DejaVuSans-50"/>
      </defs>
      <g transform="translate(117.458594 446.598437)scale(0.1 -0.1)">
       <use xlink:href="#DejaVuSans-8722"/>
       <use x="83.789062" xlink:href="#DejaVuSans-48"/>
       <use x="147.412109" xlink:href="#DejaVuSans-46"/>
       <use x="179.199219" xlink:href="#DejaVuSans-50"/>
      </g>
     </g>
    </g>
    <g id="xtick_3">
     <g id="line2d_3">
      <g>
       <use style="stroke:#000000;stroke-width:0.8;" x="216" xlink:href="#mde639b9f7f" y="432"/>
      </g>
     </g>
     <g id="text_3">
      <!-- 0.0 -->
      <g transform="translate(208.048438 446.598437)scale(0.1 -0.1)">
       <use xlink:href="#DejaVuSans-48"/>
       <use x="63.623047" xlink:href="#DejaVuSans-46"/>
       <use x="95.410156" xlink:href="#DejaVuSans-48"/>
      </g>
     </g>
    </g>
    <g id="xtick_4">
     <g id="line2d_4">
      <g>
       <use style="stroke:#000000;stroke-width:0.8;" x="302.4" xlink:href="#mde639b9f7f" y="432"/>
      </g>
     </g>
     <g id="text_4">
      <!-- 0.2 -->
      <g transform="translate(294.448437 446.598437)scale(0.1 -0.1)">
       <use xlink:href="#DejaVuSans-48"/>
       <use x="63.623047" xlink:href="#DejaVuSans-46"/>
       <use x="95.410156" xlink:href="#DejaVuSans-50"/>
      </g>
     </g>
    </g>
    <g id="xtick_5">
     <g id="line2d_5">
      <g>
       <use style="stroke:#000000;stroke-width:0.8;" x="388.8" xlink:href="#mde639b9f7f" y="432"/>
      </g>
     </g>
     <g id="text_5">
      <!-- 0.4 -->
      <g transform="translate(380.848437 446.598437)scale(0.1 -0.1)">
       <use xlink:href="#DejaVuSans-48"/>
       <use x="63.623047" xlink:href="#DejaVuSans-46"/>
       <use x="95.410156" xlink:href="#DejaVuSans-52"/>
      </g>
     </g>
    </g>
   </g>
   <g id="matplotlib.axis_2">
    <g id="ytick_1">
     <g id="line2d_6">
      <defs>
       <path d="M 0 0 
L -3.5 0 
" id="m391595aff5" style="stroke:#000000;stroke-width:0.8;"/>
      </defs>
      <g>
       <use style="stroke:#000000;stroke-width:0.8;" x="0" xlink:href="#m391595aff5" y="388.8"/>
      </g>
     </g>
     <g id="text_6">
      <!-- −0.4 -->
      <g transform="translate(-31.282813 392.599219)scale(0.1 -0.1)">
       <use xlink:href="#DejaVuSans-8722"/>
       <use x="83.789062" xlink:href="#DejaVuSans-48"/>
       <use x="147.412109" xlink:href="#DejaVuSans-46"/>
       <use x="179.199219" xlink:href="#DejaVuSans-52"/>
      </g>
     </g>
    </g>
    <g id="ytick_2">
     <g id="line2d_7">
      <g>
       <use style="stroke:#000000;stroke-width:0.8;" x="0" xlink:href="#m391595aff5" y="302.4"/>
      </g>
     </g>
     <g id="text_7">
      <!-- −0.2 -->
      <g transform="translate(-31.282813 306.199219)scale(0.1 -0.1)">
       <use xlink:href="#DejaVuSans-8722"/>
       <use x="83.789062" xlink:href="#DejaVuSans-48"/>
       <use x="147.412109" xlink:href="#DejaVuSans-46"/>
       <use x="179.199219" xlink:href="#DejaVuSans-50"/>
      </g>
     </g>
    </g>
    <g id="ytick_3">
     <g id="line2d_8">
      <g>
       <use style="stroke:#000000;stroke-width:0.8;" x="0" xlink:href="#m391595aff5" y="216"/>
      </g>
     </g>
     <g id="text_8">
      <!-- 0.0 -->
      <g transform="translate(-22.903125 219.799219)scale(0.1 -0.1)">
       <use xlink:href="#DejaVuSans-48"/>
       <use x="63.623047" xlink:href="#DejaVuSans-46"/>
       <use x="95.410156" xlink:href="#DejaVuSans-48"/>
      </g>
     </g>
    </g>
    <g id="ytick_4">
     <g id="line2d_9">
      <g>
       <use style="stroke:#000000;stroke-width:0.8;" x="0" xlink:href="#m391595aff5" y="129.6"/>
      </g>
     </g>
     <g id="text_9">
      <!-- 0.2 -->
      <g transform="translate(-22.903125 133.399219)scale(0.1 -0.1)">
       <use xlink:href="#DejaVuSans-48"/>
       <use x="63.623047" xlink:href="#DejaVuSans-46"/>
       <use x="95.410156" xlink:href="#DejaVuSans-50"/>
      </g>
     </g>
    </g>
    <g id="ytick_5">
     <g id="line2d_10">
      <g>
       <use style="stroke:#000000;stroke-width:0.8;" x="0" xlink:href="#m391595aff5" y="43.2"/>
      </g>
     </g>
     <g id="text_10">
      <!-- 0.4 -->
      <g transform="translate(-22.903125 46.999219)scale(0.1 -0.1)">
       <use xlink:href="#DejaVuSans-48"/>
       <use x="63.623047" xlink:href="#DejaVuSans-46"/>
       <use x="95.410156" xlink:href="#DejaVuSans-52"/>
      </g>
     </g>
    </g>
   </g>
   <g id="patch_3">
    <path d="M 0 432 
L 0 0 
" style="fill:none;stroke:#000000;stroke-linecap:square;stroke-linejoin:miter;stroke-width:0.8;"/>
   </g>
   <g id="patch_4">
    <path d="M 432 432 
L 432 0 
" style="fill:none;stroke:#000000;stroke-linecap:square;stroke-linejoin:miter;stroke-width:0.8;"/>
   </g>
   <g id="patch_5">
    <path d="M 0 432 
L 432 432 
" style="fill:none;stroke:#000000;stroke-linecap:square;stroke-linejoin:miter;stroke-width:0.8;"/>
   </g>
   <g id="patch_6">
    <path d="M 0 0 
L 432 0 
" style="fill:none;stroke:#000000;stroke-linecap:square;stroke-linejoin:miter;stroke-width:0.8;"/>
   </g>
  </g>
 </g>
 <defs>
  <clipPath id="p4d2d60db33">
   <rect height="432" width="432" x="0" y="0"/>
  </clipPath>
 </defs>
</svg>
